#!OML:ASF F:\VICON\USERDATA\INSTALL\rory3\rory3.ASF
:FULLY-SPECIFIED
:DEGREES
244
root -0.0902677 15.5226 -13.7675 90.6008 -2.6529 -398.435
lowerback 16.2243 -1.92407 -9.23715
upperback -1.308 -5.16544 -7.10246
thorax -10.5063 -2.15832 -1.31045
lowerneck -28.1194 2.01386 -0.203175
upperneck 2.89443 1.14748 15.0304
head 5.27565 1.83753 5.13037
rclavicle 2.8625e-014 -5.725e-014
rhumerus -5.84297 -29.3313 12.6613
rradius 31.2005
rwrist 8.3104
rhand -29.8458 -66.8513
rfingers 7.12502
rthumb -3.16859 96.8075
lclavicle 2.8625e-014 -5.725e-014
lhumerus 18.0935 1.04198 -3.76395
lradius 32.9261
lwrist 56.7513
lhand -47.1994 327.277
lfingers 7.12502
lthumb -19.899 -3.72139
rfemur -44.3632 -5.86357 53.8326
rtibia 42.7776
rfoot -2.11822 -16.5495
rtoes -10.9809
lfemur -103.599 23.709 2.66082
ltibia 61.939
lfoot -30.5261 29.348
ltoes 1.31521
245
root -0.092699 15.5843 -13.8535 90.1335 -3.79786 -398.354
lowerback 16.2624 -1.76114 -9.09188
upperback -1.28024 -4.90053 -6.88116
thorax -10.4936 -2.03722 -1.20776
lowerneck -28.3772 2.0619 -0.12303
upperneck 2.84264 1.22436 14.5184
head 5.27942 1.83922 4.96089
rclavicle -9.85972e-014 -1.11319e-014
rhumerus -5.91312 -23.7298 14.3484
rradius 30.6463
rwrist 3.12458
rhand -29.1108 -68.8291
rfingers 7.12502
rthumb -2.45867 98.7947
lclavicle -9.85972e-014 -1.11319e-014
lhumerus 16.6328 2.09761 -1.06554
lradius 33.5648
lwrist 54.2271
lhand -45.3798 335.122
lfingers 7.12502
lthumb -18.1491 4.29513
rfemur -44.7685 -5.84206 53.4413
rtibia 42.2369
rfoot -0.941552 -15.7344
rtoes -11.4633
lfemur -102.662 23.0084 3.06276
ltibia 61.5374
lfoot -29.7085 30.4844
ltoes 0.904702
246
root -0.0972112 15.6496 -13.9367 89.796 -5.18542 -398.383
lowerback 16.08 -1.52797 -9.17586
upperback -1.25179 -4.57296 -6.78093
thorax -10.3522 -1.88399 -1.13427
lowerneck -28.584 1.88213 -0.480441
upperneck 2.82321 1.06873 14.7019
head 5.31637 1.7739 5.06765
rclavicle -1.62208e-013 6.36111e-015
rhumerus -6.78213 -23.2158 13.784
rradius 30.9368
rwrist 3.13067
rhand -28.3215 -69.948
rfingers 7.12502
rthumb -1.69644 99.921
lclavicle -1.62208e-013 6.36111e-015
lhumerus 15.4303 2.65603 1.14531
lradius 34.3806
lwrist 52.2181
lhand -43.973 339.114
lfingers 7.12502
lthumb -16.7952 8.40721
rfemur -45.1798 -5.82281 52.816
rtibia 41.6237
rfoot 0.0602984 -14.8683
rtoes -11.6127
lfemur -101.714 22.4391 3.12561
ltibia 61.0668
lfoot -29.4603 31.283
ltoes 2.44545
247
root -0.0963358 15.7251 -14.0188 89.5771 -6.5936 -398.4
lowerback 15.7964 -1.3162 -9.16977
upperback -1.28621 -4.254 -6.7088
thorax -10.2336 -1.73966 -1.14118
lowerneck -28.4991 1.69763 -0.912384
upperneck 2.74758 0.953292 14.8909
head 5.29125 1.71454 5.18254
rclavicle 1.52667e-013 7.95139e-016
rhumerus -7.71046 -22.6032 13.1156
rradius 31.2787
rwrist 2.93814
rhand -28.1526 -69.7787
rfingers 7.12502
rthumb -1.53334 99.753
lclavicle 1.52667e-013 7.95139e-016
lhumerus 14.6585 3.46897 3.99302
lradius 34.6405
lwrist 48.8921
lhand -44.6214 328.829
lfingers 7.12502
lthumb -17.4193 -1.93135
rfemur -45.7624 -6.08568 52.2696
rtibia 41.0524
rfoot 0.703925 -13.6419
rtoes -12.217
lfemur -100.777 21.8361 3.2784
ltibia 60.5241
lfoot -29.9052 31.6866
ltoes 4.63734
248
root -0.0882788 15.7905 -14.1021 89.3376 -7.78517 -398.498
lowerback 15.5403 -1.1113 -8.94176
upperback -1.32417 -3.89571 -6.55366
thorax -10.1424 -1.58433 -1.18603
lowerneck -28.2375 1.60424 -0.736733
upperneck 2.71336 0.823134 14.3234
head 5.24396 1.58983 4.93767
rclavicle 1.17681e-013 5.56597e-015
rhumerus -8.64337 -22.6035 12.2356
rradius 31.7583
rwrist 3.17562
rhand -28.9296 -68.413
rfingers 7.12502
rthumb -2.28372 98.3805
lclavicle 1.17681e-013 5.56597e-015
lhumerus 13.6941 4.07952 6.8585
lradius 34.8953
lwrist 45.1034
lhand -43.0885 333.389
lfingers 7.12502
lthumb -15.9435 2.75307
rfemur -46.2733 -6.54627 51.9884
rtibia 40.5168
rfoot 1.51869 -12.8792
rtoes -14.1351
lfemur -99.8444 21.3643 3.4326
ltibia 59.9575
lfoot -30.617 31.9042
ltoes 7.03358
249
root -0.0788872 15.8517 -14.1815 89.0606 -9.27486 -398.734
lowerback 15.308 -0.815623 -9.06747
upperback -1.31946 -3.49575 -6.49671
thorax -10.0077 -1.39507 -1.15057
lowerneck -28.2698 1.37986 -0.531818
upperneck 3.09476 0.421626 13.9481
head 5.39747 1.37544 4.73899
rclavicle 9.54166e-015 0
rhumerus -8.83929 -21.4941 11.7541
rradius 31.8205
rwrist 1.73591
rhand -29.4359 -68.2156
rfingers 7.12502
rthumb -2.77265 98.1773
lclavicle 9.54166e-015 0
lhumerus 12.786 3.89596 8.86954
lradius 35.2706
lwrist 41.973
lhand -42.4367 333.381
lfingers 7.12502
lthumb -15.3158 2.79405
rfemur -46.6203 -6.77933 51.2871
rtibia 39.9815
rfoot 2.31444 -12.2045
rtoes -15.6959
lfemur -98.8002 21.0491 3.03227
ltibia 59.4062
lfoot -31.621 32.0114
ltoes 9.66295
250
root -0.0654773 15.9169 -14.2518 88.6147 -10.8076 -398.99
lowerback 15.2975 -0.497527 -9.21055
upperback -1.28427 -3.10052 -6.46661
thorax -9.97085 -1.20475 -1.12901
lowerneck -28.1412 0.949083 -0.886276
upperneck 3.27505 -0.127431 14.4153
head 5.49342 1.13291 4.8863
rclavicle 3.18055e-015 7.71285e-014
rhumerus -10.0064 -22.5732 10.3628
rradius 32.7917
rwrist 2.47934
rhand -29.0982 -68.8247
rfingers 7.12502
rthumb -2.44655 98.7905
lclavicle 3.18055e-015 7.71285e-014
lhumerus 11.8385 3.7695 10.896
lradius 35.75
lwrist 38.7673
lhand -42.5332 331.42
lfingers 7.12502
lthumb -15.4088 0.825572
rfemur -46.6883 -6.91111 50.3374
rtibia 39.4462
rfoot 3.11572 -11.4549
rtoes -14.2601
lfemur -97.6304 20.6787 2.64131
ltibia 58.9521
lfoot -29.2773 33.6669
ltoes 6.10847
251
root -0.0470428 15.9779 -14.3139 87.9167 -11.8072 -399.298
lowerback 15.5658 -0.213025 -8.76017
upperback -1.19964 -2.65428 -6.30273
thorax -10.0568 -1.01353 -1.29839
lowerneck -27.5757 0.505206 -1.40516
upperneck 2.87847 -0.579951 15.1064
head 5.34401 0.908641 5.12441
rclavicle 1.33583e-013 -1.07344e-014
rhumerus -10.0311 -21.1099 9.94568
rradius 32.7922
rwrist 1.07092
rhand -29.3705 -68.7775
rfingers 7.12502
rthumb -2.70954 98.74
lclavicle 1.33583e-013 -1.07344e-014
lhumerus 10.9206 3.22126 12.5367
lradius 36.5169
lwrist 37.0603
lhand -42.7021 331.317
lfingers 7.12502
lthumb -15.5715 0.70989
rfemur -46.3596 -7.16254 49.8218
rtibia 38.906
rfoot 3.75704 -10.4056
rtoes -13.392
lfemur -96.3531 20.3565 2.78107
ltibia 58.6428
lfoot -29.6652 33.6276
ltoes 7.61946
252
root -0.0287657 16.0311 -14.3853 87.4146 -12.492 -399.746
lowerback 15.6259 0.0554779 -8.06485
upperback -1.16145 -2.14387 -6.03396
thorax -10.0734 -0.802515 -1.50898
lowerneck -27.1539 0.151516 -1.74936
upperneck 2.65365 -0.972754 15.5818
head 5.26301 0.711635 5.27757
rclavicle 3.18055e-014 -4.77083e-015
rhumerus -10.333 -21.4388 8.84624
rradius 33.0116
rwrist 1.88335
rhand -29.7669 -67.8078
rfingers 7.12502
rthumb -3.09235 97.7651
lclavicle 3.18055e-014 -4.77083e-015
lhumerus 9.8525 2.20173 14.1497
lradius 37.1462
lwrist 35.0548
lhand -43.0138 330.089
lfingers 7.12502
lthumb -15.8717 -0.541192
rfemur -46.1194 -7.28744 49.7125
rtibia 38.3422
rfoot 4.57928 -9.18944
rtoes -15.2091
lfemur -95.3467 20.3604 3.04024
ltibia 58.4198
lfoot -29.4251 33.8158
ltoes 7.95195
253
root -0.0131074 16.0883 -14.4596 86.9904 -13.3978 -400.319
lowerback 15.6319 0.353041 -7.63263
upperback -1.13507 -1.65105 -5.85742
thorax -10.0635 -0.58949 -1.67277
lowerneck -26.9533 -0.21602 -2.18439
upperneck 2.79893 -1.44711 16.3954
head 5.35537 0.525045 5.56395
rclavicle 9.54166e-015 1.0138e-013
rhumerus -11.101 -22.7641 7.06665
rradius 33.8381
rwrist 3.31865
rhand -29.0623 -67.9835
rfingers 7.12502
rthumb -2.41188 97.9496
lclavicle 9.54166e-015 1.0138e-013
lhumerus 8.72234 2.21165 16.3649
lradius 37.7559
lwrist 32.139
lhand -42.7048 330.39
lfingers 7.12502
lthumb -15.574 -0.217335
rfemur -45.864 -7.20946 49.3389
rtibia 37.8261
rfoot 5.20754 -8.25539
rtoes -15.7358
lfemur -94.2425 20.4872 3.19305
ltibia 58.1959
lfoot -29.4242 33.9194
ltoes 8.04479
